<?xml version="1.0" encoding="utf-8"?>
<!-- Generator: Adobe Illustrator 24.0.1, SVG Export Plug-In . SVG Version: 6.00 Build 0)  -->
<svg version="1.1" id="_x39_5c6c890-4df0-4047-9b20-53c1698e0703"
	 xmlns="http://www.w3.org/2000/svg" xmlns:xlink="http://www.w3.org/1999/xlink" x="0px" y="0px" viewBox="0 0 1139.7 810.4"
	 style="enable-background:new 0 0 1139.7 810.4;" xml:space="preserve">
<style type="text/css">
	.st0{opacity:0.22;fill:#FFBC00;}
	.st1{fill:#FFBC00;}
	.st2{fill:none;stroke:#535461;stroke-width:2;stroke-miterlimit:10;}
	.st3{opacity:0.2;fill:#F5F5F5;enable-background:new    ;}
	.st4{opacity:0.32;fill:#FFBC00;}
	.st5{fill:#FFB9B9;}
	.st6{fill:#B96B6B;}
	.st7{fill:#343A40;}
	.st8{fill:#777B9B;}
	.st9{opacity:0.1;enable-background:new    ;}
	.st10{fill:#CBCDDA;}
	.st11{opacity:5.000000e-02;}
	.st12{opacity:0.53;fill:#FFBC00;}
	.st13{opacity:0.86;fill:#FFBC00;}
	.st14{opacity:0.43;fill:#FFBC00;}
	.st15{opacity:0.56;fill:#FFBC00;}
	.st16{opacity:0.36;fill:none;stroke:#1C1C1C;stroke-miterlimit:10;enable-background:new    ;}
	.st17{opacity:0.7;}
	.st18{fill:url(#SVGID_1_);}
	.st19{fill:#3E3F49;}
	.st20{opacity:0.1;fill:#FFFFFF;enable-background:new    ;}
	.st21{opacity:0.2;enable-background:new    ;}
	.st22{fill:none;stroke:#3287CA;stroke-miterlimit:10;}
	.st23{opacity:0.32;}
	.st24{opacity:0.2;fill:#3287CA;enable-background:new    ;}
	.st25{fill:url(#SVGID_2_);}
	.st26{fill:#AA7900;}
</style>
<title>freelancer</title>
<ellipse class="st0" cx="509" cy="689.9" rx="509" ry="120.5"/>
<path class="st1" d="M124.5,361.4c0,0,47.4,47.4,20.6,117.8s45.9,187.3,45.9,187.3s-0.8-0.1-2.2-0.4C91.5,649,43.1,537.6,97.2,454.9
	C117.4,424.1,133.8,388,124.5,361.4z"/>
<path class="st2" d="M124.5,361.4c0,0,26.8,58.1,0,105.5s-4.6,180.5,66.5,199.6"/>
<path class="st1" d="M40.1,553.2c0,0,54.1-8.6,59,39.9s104,55.2,104,55.2s-0.6,0.4-1.9,1.2c-81.8,53.7-160,34.2-148.2-37.1
	C57.4,585.9,57.1,559.2,40.1,553.2z"/>
<path class="st3" d="M40.1,553.2c0,0,54.1-8.6,59,39.9s104,55.2,104,55.2s-0.6,0.4-1.9,1.2c-81.8,53.7-160,34.2-148.2-37.1
	C57.4,585.9,57.1,559.2,40.1,553.2z"/>
<path class="st2" d="M40.1,553.2c0,0,42,9.2,38.5,47.4c-3.5,38.2,62.4,84,124.5,47.7"/>
<path class="st4" d="M1138.4,360.8c-6.9,34.1-42.6,51.1-62.6,76.5c-37.7,47.9-23,117.8,0.9,173.9c8,18.8,17.1,38.6,13.7,58.7
	c-4.1,24.6-26.1,42.6-49.1,52.1c-42,17.4-92.3,13.2-130.9-10.8c-33.4-20.8-57.3-54.5-91.2-74.3c-56.8-33.2-129.1-20.6-190.7,2.2
	c-43.6,16.2-91.3,37.2-134.7,20.3c-30.5-11.9-51.6-40.8-63.1-71.5c-5.5-14.8-9.6-30.8-20.2-42.5c-6.3-7-14.5-11.9-22.9-16.1
	c-76.9-38.1-174-17.7-248.6-60C88.5,440.8,56.2,387,42,330.8s-12.6-115-9-172.9c2.6-41.1,7.2-85,33.5-116.7
	C94.2,7.7,141.8-4.8,185,1.6s82.2,29.1,116.5,55.9c43,33.5,82.8,75.1,135.5,88.7c35.9,9.2,73.7,4.2,110.7,2.4
	c61.9-2.9,123.9,3.6,185.4,10.7c30,3.5,60.1,7.1,89.8,12.4c6.7,1.2,13.3,2.4,20,3.8c3.3,0.7,6.7,1.4,10,2.1c2.6,0.6,5.2,1.2,7.8,1.8
	c4.1,1,8.2,2,12.2,3c11.7,3,23.2,6.5,34.6,10.4c39.7,13.6,71.6,38.2,109.1,55.4c24.5,11.2,51.1,14.3,74.3,28.6
	C1119.6,294.4,1145.7,325,1138.4,360.8z"/>
<path class="st5" d="M606.1,644c0,0,41.1-3.3,52.9,10.9s54.1,46.6,36.6,53.8s-111-21.6-111-21.6L606.1,644z"/>
<path class="st6" d="M437.2,151.8c-0.7-9.7-7.9-17.7-17.5-19.5c-6.3-1-13.3,0.8-18.6-2.6c-2.4-1.5-4.2-3.9-6.1-6
	c-7.7-8.2-19.2-12-30.5-12.3s-22.3,2.4-33.1,5.5c-21.6,6.2-44.3,15.3-55.8,34.6c-17.4,29.4-1.4,68.9-15.1,100.1
	c-6,13.6-17.4,24.8-21.2,39.2c-5,19.3,4.9,38.9,12.5,57.3c6.8,16.5,12,33.7,15.4,51.2c3,15.5,4.8,31.6,1.3,47
	c-1.5,6.8-4,13.6-2.7,20.4c2,10.3,11.9,16.7,20.9,22l2.4,1.4c13,7.6,26.4,15.4,41.3,17.2c9.3,1.2,19-0.1,27-4.8s14.1-13.2,14.8-22.5
	c0.8-10.5-5.1-20.4-6.4-30.8c-0.3-1.6-0.2-3.2,0.4-4.7c0.8-2,2.8-3.3,4.5-4.5c25.6-17.9,39.4-51.3,33.7-82.1
	c-3.9-20.9-15.9-41.8-10-62.3c3.2-11.3,11.5-20.5,16.1-31.3c4.9-11.5,5.5-24.5,1.7-36.4c-2.6-8.3-7.5-16.5-5.8-25
	c2.9-15.1,23-19.9,30.6-33.3c5.6-9.9,2.3-24-7.2-30.3"/>
<path class="st7" d="M437.2,151.8c-0.7-9.7-7.9-17.7-17.5-19.5c-6.3-1-13.3,0.8-18.6-2.6c-2.4-1.5-4.2-3.9-6.1-6
	c-7.7-8.2-19.2-12-30.5-12.3s-22.3,2.4-33.1,5.5c-21.6,6.2-44.3,15.3-55.8,34.6c-17.4,29.4-1.4,68.9-15.1,100.1
	c-6,13.6-17.4,24.8-21.2,39.2c-5,19.3,4.9,38.9,12.5,57.3c6.8,16.5,12,33.7,15.4,51.2c3,15.5,4.8,31.6,1.3,47
	c-1.5,6.8-4,13.6-2.7,20.4c2,10.3,11.9,16.7,20.9,22l2.4,1.4c13,7.6,26.4,15.4,41.3,17.2c9.3,1.2,19-0.1,27-4.8s14.1-13.2,14.8-22.5
	c0.8-10.5-5.1-20.4-6.4-30.8c-0.3-1.6-0.2-3.2,0.4-4.7c0.8-2,2.8-3.3,4.5-4.5c25.6-17.9,39.4-51.3,33.7-82.1
	c-3.9-20.9-15.9-41.8-10-62.3c3.2-11.3,11.5-20.5,16.1-31.3c4.9-11.5,5.5-24.5,1.7-36.4c-2.6-8.3-7.5-16.5-5.8-25
	c2.9-15.1,23-19.9,30.6-33.3c5.6-9.9,2.3-24-7.2-30.3"/>
<polygon class="st8" points="478.5,675.9 263.5,675.9 263.5,560.9 383.5,606.9 478.5,560.9 "/>
<polygon class="st9" points="478.5,675.9 263.5,675.9 263.5,560.9 383.5,606.9 478.5,560.9 "/>
<path class="st5" d="M452.5,687c0,0-39,9.3-43,26.4s23,15.5,23,15.5s38-7.8,43-38.8S452.5,687,452.5,687z"/>
<path class="st9" d="M452.5,687c0,0-39,9.3-43,26.4s23,15.5,23,15.5s38-7.8,43-38.8S452.5,687,452.5,687z"/>
<path class="st10" d="M347.8,739c0,0-36.8,2.4-37.3,32.2c-0.1,4,38.3,5.2,83.9-19.3s48.6-27.1,48.6-27.1s-17.6-28.4-30-32.2
	S347.8,739,347.8,739z"/>
<path class="st7" d="M132.5,624.9c0,0-42,35,36,84s153,40,153,40s81.4-9.6,93.7-47.8s-60.7-70.2-60.7-70.2s-80,0-116-23
	S132.5,624.9,132.5,624.9z"/>
<path class="st7" d="M359.5,564.9c0,0,36,21,85,0c37.7-16.2,120.4-9.8,156.5-6c16.9,1.8,31.5,13.4,36.1,29.8
	c3.8,13.4,1,29.8-21.6,45.2c-50,34-85,44-98,58c-13,14-50,21-50,21s-47-7-47-17s43-59,43-59s-63,58-128-20S359.5,564.9,359.5,564.9z
	"/>
<path class="st5" d="M341.5,423.9l-127-87c0,0,60.9-41.3,66.1-78.2c1.2-7.2-0.3-14.6-4.1-20.8c-25-40,88,0,88,0
	c0.7,10.4,2.1,20.8,4.3,31c4.9,24.4,15.3,56.8,36.8,73C442.5,369.9,341.5,423.9,341.5,423.9z"/>
<path class="st9" d="M368.8,268.9c-28.4,16.5-64.2,12.4-88.1-10.2c1.2-7.2-0.3-14.6-4.1-20.8c-25-40,88,0,88,0
	C365.2,248.3,366.7,258.7,368.8,268.9z"/>
<circle class="st5" cx="331.5" cy="202.9" r="74"/>
<path class="st9" d="M377.5,300.9c0,0-15,88-40,83s-103-93-103-93s-81,27-68,93s26,122-1,143c-27,21-44,119-44,119s86-36,131-22
	s91,7,102-6s27-41,27-41s-23-34-12-51c11-17,25-18,33-66s71-65,59-92S426.5,300.9,377.5,300.9z"/>
<path class="st10" d="M377.5,296.9c0,0-15,88-40,83s-103-93-103-93s-81,27-68,93s26,122-1,143c-27,21-44,119-44,119s86-36,131-22
	s91,7,102-6s27-41,27-41s-23-34-12-51c11-17,25-18,33-66s71-65,59-92S426.5,296.9,377.5,296.9z"/>
<path class="st5" d="M437.5,657.9c0,0,40-10,54,2c14,12,61,37,45,47s-113-3-113-3L437.5,657.9z"/>
<g class="st11">
	<path d="M327.5,379.9c2.3,0.4,4.8,0.1,6.9-1c-27.8-10.7-99.9-92-99.9-92s-2.8,1-7.4,2.9C240.9,305.1,305.2,375.5,327.5,379.9z"/>
	<path d="M451.5,363.9c27.6-10.6-51,44-59,92s-22,49-33,66c-11,17,12,51,12,51s-16,28-27,41c-6.3,7.5-24.1,12.9-46.6,13.6
		c27.1,0.9,49.4-5.1,56.6-13.6c11-13,27-41,27-41s-23-34-12-51c11-17,25-18,33-66S445,366.4,451.5,363.9z"/>
	<path d="M122.3,637.8c-0.5,2.7-0.8,4.2-0.8,4.2s55.9-23.4,101.2-25.1C187.8,615.4,142.6,630.2,122.3,637.8z"/>
</g>
<path class="st10" d="M454.5,358.9c0,0,9,1,18,48s44,92,44,92c13.8,18.5,24.6,39.1,32,61c12,36,65.5,83.5,84.5,85.5
	c0,0-36.5,36.5-32.5,46.5s-4,0-4,0s-50-19-61-50s-59-81-59-81s-64-124-67-144S454.5,358.9,454.5,358.9z"/>
<path class="st9" d="M179,527.4c0,0,77,9,94,33s95.8-13.9,95.8-13.9"/>
<path class="st9" d="M254.5,390.9c0,0,33,121,45,136c12,15,105,138,149,130c0,0-13,56-22,58c0,0-91-90-122-89c0,0-57-47-63-70
	s-54-98-54-98s-24-53-14-76S236.5,368.9,254.5,390.9z"/>
<path class="st10" d="M255.5,388.9c0,0,33,121,45,136c12,15,105,138,149,130c0,0-13,56-22,58c0,0-91-90-122-89c0,0-57-47-63-70
	s-54-98-54-98s-24-53-14-76S237.5,366.9,255.5,388.9z"/>
<path class="st9" d="M385.2,132.8c-0.7-9.7-7.9-17.7-17.5-19.5c-6.3-1-13.3,0.8-18.6-2.6c-2.4-1.5-4.2-3.9-6.1-6
	c-7.7-8.2-19.2-12-30.5-12.3s-22.3,2.4-33.1,5.5c-21.6,6.2-44.3,15.3-55.8,34.6c-17.4,29.4-1.4,68.9-15.1,100.1
	c-6,13.6-17.4,24.8-21.2,39.2c-5,19.3,4.9,38.9,12.4,57.3c6.8,16.5,12,33.7,15.4,51.2c3.1,15.5,4.8,31.6,1.3,47
	c-1.5,6.8-4,13.6-2.7,20.4c2,10.3,11.9,16.7,20.9,22l2.4,1.4c13,7.6,26.4,15.4,41.3,17.2c9.3,1.2,19-0.1,27-4.8s14.1-13.2,14.8-22.5
	c0.8-10.5-5.1-20.4-6.4-30.8c-0.3-1.6-0.2-3.2,0.4-4.7c0.8-2,2.8-3.3,4.5-4.5c25.6-17.9,39.4-51.3,33.7-82.1
	c-3.9-20.9-15.9-41.8-10-62.3c3.2-11.3,11.5-20.5,16.1-31.3c4.9-11.5,5.5-24.5,1.7-36.4c-2.6-8.3-7.5-16.5-5.8-25
	c2.9-15.1,23-19.9,30.6-33.3c5.6-9.9,2.3-24-7.2-30.3"/>
<path class="st7" d="M383.2,131.8c-0.7-9.7-7.9-17.7-17.5-19.5c-6.3-1-13.3,0.8-18.6-2.6c-2.4-1.5-4.2-3.9-6.1-6
	c-7.7-8.2-19.2-12-30.5-12.3s-22.3,2.4-33.1,5.5c-21.6,6.2-44.3,15.3-55.8,34.6c-17.4,29.4-1.4,68.9-15.1,100.1
	c-6,13.6-17.4,24.8-21.2,39.2c-5,19.3,4.9,38.9,12.4,57.3c6.8,16.5,12,33.7,15.4,51.2c3.1,15.5,4.8,31.6,1.3,47
	c-1.5,6.8-4,13.6-2.7,20.4c2,10.3,11.9,16.7,20.9,22l2.4,1.4c13,7.6,26.4,15.4,41.3,17.2c9.3,1.2,19-0.1,27-4.8s14.1-13.2,14.8-22.5
	c0.8-10.5-5.1-20.4-6.4-30.8c-0.3-1.6-0.2-3.2,0.4-4.7c0.8-2,2.8-3.3,4.5-4.5c25.6-17.9,39.4-51.3,33.7-82.1
	c-3.9-20.9-15.9-41.8-10-62.3c3.2-11.3,11.5-20.5,16.1-31.3c4.9-11.5,5.5-24.5,1.7-36.4c-2.6-8.3-7.5-16.5-5.8-25
	c2.9-15.1,23-19.9,30.6-33.3c5.6-9.9,2.3-24-7.2-30.3"/>
<rect x="585" y="227.4" class="st12" width="318" height="22"/>
<rect x="585" y="322.4" class="st12" width="318" height="22"/>
<rect x="585" y="421.4" class="st12" width="318" height="22"/>
<rect x="613" y="170.4" class="st12" width="20" height="57"/>
<rect x="613" y="179.4" class="st13" width="20" height="4"/>
<rect x="613" y="210.4" class="st13" width="20" height="4"/>
<rect x="643" y="170.4" class="st12" width="20" height="57"/>
<rect x="643" y="179.4" class="st13" width="20" height="4"/>
<rect x="643" y="210.4" class="st13" width="20" height="4"/>
<rect x="673" y="170.4" class="st12" width="20" height="57"/>
<rect x="673" y="179.4" class="st13" width="20" height="4"/>
<rect x="673" y="210.4" class="st13" width="20" height="4"/>
<rect x="703" y="170.4" class="st12" width="20" height="57"/>
<rect x="703" y="179.4" class="st13" width="20" height="4"/>
<rect x="703" y="210.4" class="st13" width="20" height="4"/>
<rect x="733" y="170.4" class="st12" width="20" height="57"/>
<rect x="733" y="179.4" class="st13" width="20" height="4"/>
<rect x="733" y="210.4" class="st13" width="20" height="4"/>
<rect x="763" y="170.4" class="st12" width="20" height="57"/>
<rect x="763" y="179.4" class="st13" width="20" height="4"/>
<rect x="763" y="210.4" class="st13" width="20" height="4"/>
<rect x="793" y="170.4" class="st12" width="20" height="57"/>
<rect x="793" y="179.4" class="st13" width="20" height="4"/>
<rect x="793" y="210.4" class="st13" width="20" height="4"/>
<rect x="795" y="364.4" transform="matrix(0.8939 -0.4482 0.4482 0.8939 -90.7077 402.5002)" class="st12" width="20" height="57"/>
<rect x="787.2" y="375.2" transform="matrix(0.8939 -0.4482 0.4482 0.8939 -84.5258 397.3269)" class="st13" width="20" height="4"/>
<rect x="801" y="403" transform="matrix(0.8939 -0.4482 0.4482 0.8939 -95.4752 406.4913)" class="st13" width="20" height="4"/>
<rect x="613" y="266.4" class="st12" width="20" height="57"/>
<rect x="613" y="275.4" class="st13" width="20" height="4"/>
<rect x="613" y="306.4" class="st13" width="20" height="4"/>
<rect x="643" y="266.4" class="st12" width="20" height="57"/>
<rect x="643" y="275.4" class="st13" width="20" height="4"/>
<rect x="643" y="306.4" class="st13" width="20" height="4"/>
<rect x="673" y="266.4" class="st12" width="20" height="57"/>
<rect x="673" y="275.4" class="st13" width="20" height="4"/>
<rect x="673" y="306.4" class="st13" width="20" height="4"/>
<rect x="798" y="266.4" class="st12" width="20" height="57"/>
<rect x="798" y="275.4" class="st13" width="20" height="4"/>
<rect x="798" y="306.4" class="st13" width="20" height="4"/>
<rect x="828" y="266.4" class="st12" width="20" height="57"/>
<rect x="828" y="275.4" class="st13" width="20" height="4"/>
<rect x="828" y="306.4" class="st13" width="20" height="4"/>
<rect x="858" y="266.4" class="st12" width="20" height="57"/>
<rect x="858" y="275.4" class="st13" width="20" height="4"/>
<rect x="858" y="306.4" class="st13" width="20" height="4"/>
<rect x="613" y="364.4" class="st12" width="20" height="57"/>
<rect x="613" y="373.4" class="st13" width="20" height="4"/>
<rect x="613" y="404.4" class="st13" width="20" height="4"/>
<rect x="643" y="364.4" class="st12" width="20" height="57"/>
<rect x="643" y="373.4" class="st13" width="20" height="4"/>
<rect x="643" y="404.4" class="st13" width="20" height="4"/>
<rect x="673" y="364.4" class="st12" width="20" height="57"/>
<rect x="673" y="373.4" class="st13" width="20" height="4"/>
<rect x="673" y="404.4" class="st13" width="20" height="4"/>
<rect x="703" y="364.4" class="st12" width="20" height="57"/>
<rect x="703" y="373.4" class="st13" width="20" height="4"/>
<rect x="703" y="404.4" class="st13" width="20" height="4"/>
<rect x="733" y="364.4" class="st12" width="20" height="57"/>
<rect x="733" y="373.4" class="st13" width="20" height="4"/>
<rect x="733" y="404.4" class="st13" width="20" height="4"/>
<rect x="763" y="364.4" class="st12" width="20" height="57"/>
<rect x="763" y="373.4" class="st13" width="20" height="4"/>
<rect x="763" y="404.4" class="st13" width="20" height="4"/>
<path class="st12" d="M843,175.5v51.9h-20v-55.7C829.7,172.9,836.4,174.1,843,175.5z"/>
<rect x="823" y="179.4" class="st13" width="20" height="4"/>
<rect x="823" y="210.4" class="st13" width="20" height="4"/>
<path class="st12" d="M873,182.4v45h-20v-49.8c2.6,0.6,5.2,1.2,7.8,1.8C864.9,180.4,868.9,181.4,873,182.4z"/>
<path class="st13" d="M873,182.4v1h-20v-4h7.8C864.9,180.4,868.9,181.4,873,182.4z"/>
<rect x="853" y="210.4" class="st13" width="20" height="4"/>
<circle class="st14" cx="146.7" cy="161.8" r="37.3"/>
<ellipse transform="matrix(7.088900e-02 -0.9975 0.9975 7.088900e-02 -26.04 297.5437)" class="st15" cx="146.7" cy="162.8" rx="31.7" ry="31.7"/>
<line class="st16" x1="160.3" y1="139" x2="147.8" y2="160.8"/>
<line class="st16" x1="160.8" y1="169.1" x2="148.7" y2="162.7"/>
<path class="st7" d="M474.8,715.5h104.4c3.6,0,6.5,2.9,6.5,6.5v3.6c0,3.6-2.9,6.5-6.5,6.5H474.8c-3.6,0-6.5-2.9-6.5-6.5V722
	C468.3,718.4,471.2,715.5,474.8,715.5z"/>
<g class="st17">
	
		<linearGradient id="SVGID_1_" gradientUnits="userSpaceOnUse" x1="685.655" y1="79.71" x2="685.655" y2="281.51" gradientTransform="matrix(1 0 0 -1 0 812)">
		<stop  offset="0" style="stop-color:#808080;stop-opacity:0.25"/>
		<stop  offset="0.54" style="stop-color:#808080;stop-opacity:0.12"/>
		<stop  offset="1" style="stop-color:#808080;stop-opacity:0.1"/>
	</linearGradient>
	<path class="st18" d="M567.9,530.5h235.4c15.6,0,28.2,12.6,28.2,28.2v145.4c0,15.6-12.6,28.2-28.2,28.2H567.9
		c-15.6,0-28.2-12.6-28.2-28.2V558.7C539.7,543.1,552.4,530.5,567.9,530.5z"/>
</g>
<path class="st19" d="M571.8,534.2h222.8c14.8,0,26.8,12,26.8,26.8v144.4c0,14.8-12,26.8-26.8,26.8H571.8c-14.8,0-26.8-12-26.8-26.8
	V561.1C544.9,546.2,557,534.2,571.8,534.2z"/>
<path class="st7" d="M575.6,534.2h222.8c14.8,0,26.8,12,26.8,26.8v144.4c0,14.8-12,26.8-26.8,26.8H575.6c-14.8,0-26.8-12-26.8-26.8
	V561.1C548.8,546.2,560.8,534.2,575.6,534.2z"/>
<path class="st1" d="M222.6,720.3c0,0-15.9-5.4-23.5,8.6c-4.1,7.7-4,17,0.3,24.6c5,9.1,15.4,20.8,35,19.8
	c16.6-0.9,22.1-13.6,23.6-25.4c1.9-14.3-8.2-27.3-22.5-29.2c-4.1-0.5-8.2-0.1-12.1,1.3L222.6,720.3z"/>
<path class="st20" d="M202.7,754.8c-4.3-7.6-4.4-16.9-0.3-24.6c7.6-14,23.5-8.6,23.5-8.6l0.8-0.3c6.1-2.2,12.7-2,18.7,0.4
	c-6.6-4-14.7-4.7-22-2.1l-0.8,0.3c0,0-15.9-5.4-23.5,8.6c-4.1,7.7-4,17,0.3,24.6c3.3,6,8.9,13.1,18,17
	C211.2,766.4,206.1,761.1,202.7,754.8z"/>
<path class="st21" d="M214.4,727.1c0,0,5.9,4.6,20.2,0"/>
<path class="st1" d="M213.1,693.4c0,0,10.1,27.3,9.3,34.5l8-0.8c0,0-13.5-24-10.1-33.6L213.1,693.4z"/>
<path class="st21" d="M213.1,693.4c0,0,10.1,27.3,9.3,34.5l8-0.8c0,0-13.5-24-10.1-33.6L213.1,693.4z"/>
<path class="st1" d="M254.3,695.7c0,0-15.9-8.1-23-1.4s-8.2,23.9-8.2,23.9S249,721.7,254.3,695.7z"/>
<path class="st20" d="M254.3,695.7c0,0-15.9-8.1-23-1.4s-8.2,23.9-8.2,23.9S249,721.7,254.3,695.7z"/>
<path class="st22" d="M223.1,718.2c0,0,4.2-19.9,31.2-22.5"/>
<g class="st23">
	<path class="st1" d="M733.4,302.7c0,0-6.1-2.1-9,3.3c-1.6,2.9-1.5,6.5,0.1,9.4c1.9,3.5,5.9,8,13.3,7.6c6.3-0.3,8.5-5.2,9-9.7
		c0.7-5.5-3.2-10.5-8.7-11.1c-1.5-0.2-3.1,0-4.5,0.5L733.4,302.7z"/>
	<path class="st0" d="M725.8,315.9c-1.6-2.9-1.7-6.4-0.1-9.4c2.9-5.3,9-3.3,9-3.3l0.3-0.1c2.3-0.8,4.9-0.8,7.1,0.2
		c-2.5-1.5-5.6-1.8-8.4-0.8l-0.3,0.1c0,0-6.1-2.1-9,3.3c-1.6,2.9-1.5,6.5,0.1,9.4c1.5,2.9,3.9,5.1,6.9,6.5
		C729.1,320.3,727.1,318.3,725.8,315.9z"/>
	<path class="st24" d="M730.3,305.3c0,0,2.3,1.8,7.7,0"/>
	<path class="st1" d="M729.8,292.4c0,0,3.8,10.4,3.5,13.2l3-0.3c0,0-5.1-9.1-3.8-12.9H729.8z"/>
	<path class="st24" d="M729.8,292.4c0,0,3.8,10.4,3.5,13.2l3-0.3c0,0-5.1-9.1-3.8-12.9H729.8z"/>
	<path class="st1" d="M745.5,293.3c0,0-6.1-3.1-8.8-0.5s-3.1,9.1-3.1,9.1S743.5,303.2,745.5,293.3z"/>
	<path class="st0" d="M745.5,293.3c0,0-6.1-3.1-8.8-0.5s-3.1,9.1-3.1,9.1S743.5,303.2,745.5,293.3z"/>
	<path class="st1" d="M733.6,301.9c0,0,1.6-7.6,11.9-8.6"/>
</g>
<g class="st23">
	<path class="st1" d="M861.4,401.7c0,0-6.1-2.1-9,3.3c-1.6,2.9-1.5,6.5,0.1,9.4c1.9,3.5,5.9,8,13.3,7.6c6.3-0.3,8.5-5.2,9-9.7
		c0.7-5.5-3.2-10.5-8.7-11.1c-1.5-0.2-3.1,0-4.5,0.5L861.4,401.7z"/>
	<path class="st0" d="M853.8,414.9c-1.6-2.9-1.7-6.4-0.1-9.4c2.9-5.3,9-3.3,9-3.3l0.3-0.1c2.3-0.8,4.9-0.8,7.1,0.2
		c-2.5-1.5-5.6-1.8-8.4-0.8l-0.3,0.1c0,0-6.1-2.1-9,3.3c-1.6,2.9-1.5,6.5,0.1,9.4c1.5,2.9,3.9,5.1,6.9,6.5
		C857.1,419.3,855.1,417.3,853.8,414.9z"/>
	<path class="st24" d="M858.3,404.3c0,0,2.3,1.8,7.7,0"/>
	<path class="st1" d="M857.8,391.4c0,0,3.8,10.4,3.5,13.2l3-0.3c0,0-5.1-9.1-3.8-12.9H857.8z"/>
	<path class="st24" d="M857.8,391.4c0,0,3.8,10.4,3.5,13.2l3-0.3c0,0-5.1-9.1-3.8-12.9H857.8z"/>
	<path class="st1" d="M873.5,392.3c0,0-6.1-3.1-8.8-0.5s-3.1,9.1-3.1,9.1S871.5,402.2,873.5,392.3z"/>
	<path class="st0" d="M873.5,392.3c0,0-6.1-3.1-8.8-0.5s-3.1,9.1-3.1,9.1S871.5,402.2,873.5,392.3z"/>
	<path class="st1" d="M861.6,400.9c0,0,1.6-7.6,11.9-8.6"/>
</g>
<g>
	<radialGradient id="SVGID_2_" cx="731.024" cy="616.0515" r="47.3151" gradientUnits="userSpaceOnUse">
		<stop  offset="0" style="stop-color:#FFCE00"/>
		<stop  offset="0.3147" style="stop-color:#FFCB00"/>
		<stop  offset="0.5222" style="stop-color:#FFC200"/>
		<stop  offset="0.6987" style="stop-color:#FFB300"/>
		<stop  offset="0.8569" style="stop-color:#FF9E00"/>
		<stop  offset="1" style="stop-color:#FF8400"/>
	</radialGradient>
	<path class="st25" d="M707.6,608.2l-8.4,41l-7.8,2.4l-8.4-35.8l7.8-2.4l4.5,19.3l4.5-22L707.6,608.2z"/>
</g>
<circle class="st26" cx="146.7" cy="161.8" r="2.3"/>
</svg>
